# xmcd
#
# Track frame offsets: 
#        150
#        31541
#        54450
#        69830
#        101363
#        104397
#        120935
#        142341
#        165032
#        184107
#        204795
#        210384
#        229178
#        258798
#
# Disc length: 3671 seconds
#
# Revision: 0
# Processed by: cddbd v1.5.2PL0 Copyright (c) Steve Scherf et al.
# Submitted via: ExactAudioCopy v0.99pb3
#
DISCID=a60e550e
DTITLE=Jeff Healey Band - Luxor Arena, Arnhem, Holland, 02-12-1988
DYEAR=1988
DGENRE=Blues
TTITLE0=interview with Jeff Healey on dutch radio
TTITLE1=Hideaway
TTITLE2=My Little Girl
TTITLE3=Blue Jean Blues
TTITLE4=band introduction
TTITLE5=Confidence Man
TTITLE6=I Need To be Loved
TTITLE7=See The Light
TTITLE8=Help Me
TTITLE9=Early In The Morning
TTITLE10=One Foot On The Gravel (cut)
TTITLE11=One Foot On The Gravel (ending)
TTITLE12=White Room
TTITLE13=Don't Let Your Chance Go By
EXTD=
EXTT0=
EXTT1=
EXTT2=
EXTT3=
EXTT4=
EXTT5=
EXTT6=
EXTT7=
EXTT8=
EXTT9=
EXTT10=
EXTT11=
EXTT12=
EXTT13=
PLAYORDER=
